<?xml version="1.0" encoding="utf-8"?>
<!DOCTYPE svg PUBLIC "-//W3C//DTD SVG 1.1//EN" "http://www.w3.org/Graphics/SVG/1.1/DTD/svg11.dtd">
<svg version="1.1" id="Layer_1" xmlns="http://www.w3.org/2000/svg" xmlns:xlink="http://www.w3.org/1999/xlink" x="0px" y="0px" width="85px" height="85px" viewBox="0 0 80 80" enable-background="new 0 0 80 80" xml:space="preserve">
	<g>
		<path fill="#FFFFFF" d="M40,0c22.091,0,40,17.909,40,40S62.091,80,40,80S0,62.091,0,40S17.909,0,40,0z"/>
	</g>
	<g>
<path fill="#fff" style="fill: var(--color1, #fff)" d="M12.106 17.091c-0.738 0-1.339 0.601-1.339 1.339s0.601 1.339 1.339 1.339c0.738 0 1.339-0.601 1.339-1.339s-0.601-1.339-1.339-1.339z"></path>
<path fill="#fff" style="fill: var(--color1, #fff)" d="M19.894 22.387c-0.738 0-1.339 0.601-1.339 1.339s0.601 1.339 1.339 1.339c0.738 0 1.339-0.601 1.339-1.339s-0.601-1.339-1.339-1.339z"></path>
<path fill="#fff" style="fill: var(--color1, #fff)" d="M30.313 11.335h-2.622c0.548 1.275 0.183 2.807-0.975 3.684-1.357 1.028-3.298 0.768-4.332-0.598l-2.337-3.086h-8.095l-2.337 3.086c-1.028 1.358-2.968 1.632-4.332 0.598-1.159-0.878-1.523-2.41-0.975-3.684h-2.621c-0.932 0-1.687 0.755-1.687 1.687s0.755 1.687 1.687 1.687h0.421l3.015 12.088c0.33 1.496 1.656 2.562 3.188 2.562h15.379c1.532 0 2.858-1.065 3.188-2.562l3.015-12.088h0.421c0.932 0 1.687-0.755 1.687-1.687s-0.755-1.687-1.687-1.687zM9.080 18.43c0-1.668 1.357-3.026 3.025-3.026s3.026 1.357 3.026 3.026c0 1.668-1.357 3.026-3.026 3.026s-3.026-1.357-3.026-3.026zM12.694 27.545c-0.415-0.211-0.581-0.719-0.37-1.134l5.812-11.431c0.207-0.407 0.713-0.584 1.134-0.37 0.413 0.21 0.581 0.717 0.369 1.134l-5.812 11.431c-0.211 0.414-0.718 0.581-1.134 0.369zM19.894 26.751c-1.668 0-3.026-1.357-3.026-3.026s1.357-3.026 3.026-3.026c1.668 0 3.026 1.357 3.026 3.026s-1.357 3.026-3.026 3.026z"></path>
<path fill="#fff" style="fill: var(--color1, #fff)" d="M6.132 13.899c0.743 0.563 1.801 0.416 2.363-0.326l6.229-8.226c0.562-0.743 0.416-1.801-0.326-2.363s-1.801-0.416-2.363 0.326l-6.229 8.226c-0.562 0.743-0.416 1.801 0.326 2.363z"></path>
<path fill="#fff" style="fill: var(--color1, #fff)" d="M23.505 13.573c0.562 0.743 1.62 0.889 2.363 0.326s0.889-1.62 0.326-2.363l-6.229-8.226c-0.562-0.743-1.62-0.889-2.363-0.326s-0.889 1.62-0.326 2.363l6.229 8.226z"></path>

	</g>
</svg>